**ABCDEFGHIJKLMNOPQRSTUVWXYZabcdefghijklmnopqrstuvwxyz**************************
**PARASOLID !"#$%&'()*+,-./:;<=>?@[\]^_`{|}~0123456789**************************
**PART1;
MC=AMD64;
MC_MODEL=AMD64 Family 25 Model 97 Stepping 2, AuthenticAMD;
MC_ID=unknown;
OS=Windows_NT;
OS_RELEASE=unknown;
FRU=Parasolid Version 35.1, build 251, 11- 4-2023;
APPL=SOLIDWORKS 2024-2024157;
SITE=;
USER=unknown;
FORMAT=text;
GUISE=transmit;
KEY=Old Stopper;
FILE=Old Stopper.x_t;
DATE=Mon Dec  2 01:25:17 2024;
**PART2;
SCH=SCH_3501251_35102;
USFLD_SIZE=0;
**PART3;
**END_OF_HEADER*****************************************************************
T51 : TRANSMIT FILE created by modeller version 350125123 SCH_3501251_35102_1300
6231 0 12 36 CCCI7 lattice222 0 CCCI4 mesh1006 0 I8 polyline1008 0 CCCCCCCDI5 ow
ner1040 0 CCCI16 boundary_lattice222 0 CCCI13 boundary_mesh1006 0 I17 boundary_p
olyline1008 0 CCCA16 index_map_offset0 0 1 dA9 index_map82 0 A17 node_id_index_m
ap82 0 A20 schema_embedding_map82 0 A5 child12 0 A14 lowest_node_id0 0 1 dA16 me
sh_offset_data206 0 Z1 1192 2 3 0 0 4 0 0 0 0 1e3 1e-8 0 5 0 1 0 1 1 6 0 7 8 9 0
 0 10 11 12 0 0 0 0 0 0 0 81 255 2 2 1105 13 1 14 0 0 0 0 15 70 11 CI9 list_type
0 0 1 uI10 notransmit0 0 1 lCCCDCCDI12 finger_index0 0 1 dI12 finger_block1012 0
 CZ3 0 4 T1 0 0 11 20 1 16 16 137 255 4 460 0 1 17 0 0 +18 19 0 ?13 255 6 162 0
 1 0 20 0 0 21 0 51 255 7 526 0 22 18 0 0 +-.139705 .00662132363008546 .10837286
39332422 1 0 0 .004 0 0 -1 137 8 924 0 1 23 0 24 -25 26 0 ?29 255 9 495 0 12 27
 0 -.139705 .00899145423367477 .1115950496699634 19 9 CCCCCCI5 frame230 0 CA5 ow
ner12 0 Z10 54 0 1 21 0 28 0 V0 16 255 11 502 0 ?29 0 30 31 0 0 1 18 255 12 493
 0 32 0 33 9 ?1 17 255 32 0 34 35 36 12 37 30 0 38 +18 33 484 0 39 12 40 27 ?1 1
7 39 0 41 42 43 33 44 45 0 36 +18 40 474 0 29 33 46 47 ?1 29 27 486 0 33 47 9 -.
131205 .00899145423367477 .1115950496699634 29 47 477 0 40 48 27 -.139705 .01061
256898896006 .1086373643779714 29 48 473 0 46 49 47 -.131205 .01061256898896006
 .1086373643779714 18 46 470 0 44 40 50 48 ?1 29 49 388 0 50 51 48 -.139705 .010
8195559427279 .105513983169976 18 50 386 0 52 46 53 49 15e-6 1 29 51 383 0 53 54
 49 -.131205 .0108195559427279 .105513983169976 18 53 381 0 55 50 56 51 15e-6 1
 29 54 369 0 56 57 51 -.139705 .0395451706372922 .09265128868532 18 56 367 0 58
 53 59 54 15e-6 1 29 57 364 0 59 60 54 -.131205 .0395451706372922 .0926512886853
2 18 59 362 0 61 56 62 57 15e-6 1 29 60 120 0 63 64 57 -.131205 -.00646426339171
102 .1095755952804106 18 63 105 0 65 66 67 60 ?1 29 64 121 0 67 68 60 -.131205 -
.00591591234013384 .0673964323930947 18 67 106 0 69 63 70 64 ?1 29 68 122 0 70 7
1 64 -.131205 .0094546140420758 .0598148555918404 18 70 107 0 72 67 73 68 ?1 29
 71 53 0 62 74 68 -.139705 -.00646426339171102 .1095755952804106 18 62 51 0 75 5
9 76 71 ?1 29 74 50 0 76 77 71 -.139705 -.00591591234013384 .0673964323930947 18
 76 48 0 78 62 79 74 ?1 29 77 47 0 79 80 74 -.139705 .0094546140420758 .05981485
55918404 18 79 45 0 81 76 82 77 ?1 29 80 44 0 82 83 77 -.139705 .075525 .0770214
5519 18 82 42 0 84 79 66 80 ?1 29 83 41 0 66 85 80 -.139705 .075525 .10202145519
 18 66 39 0 86 82 63 83 ?1 29 85 684 0 73 87 83 -.118505 .0108195559427279 .1055
13983169976 18 73 618 0 88 70 89 85 15e-6 1 29 87 689 0 89 90 85 -.131205 .01377
35060300097 .0609396173753027 18 89 611 0 91 73 92 87 ?1 29 90 903 0 92 93 87 -.
118505 .0137735060300097 .0609396173753027 18 92 749 0 94 89 95 90 ?1 29 93 904
 0 95 96 90 -.110005 .00899145423367477 .1115950496699634 18 95 767 0 97 92 98 9
3 ?1 29 96 905 0 98 99 93 -.118505 .00899145423367477 .1115950496699634 18 98 75
3 0 100 95 101 96 ?1 29 99 906 0 101 102 96 -.110005 .01061256898896006 .1086373
643779714 18 101 754 0 103 98 104 99 ?1 29 102 907 0 104 105 99 -.118505 .010612
56898896006 .1086373643779714 18 104 766 0 106 101 107 102 ?1 29 105 908 0 107 1
08 102 -.110005 .0108195559427279 .105513983169976 18 107 765 0 109 104 110 105
 15e-6 1 29 108 910 0 110 111 105 -.110005 .0395451706372922 .09265128868532 18
 110 756 0 112 107 113 108 15e-6 1 29 111 911 0 113 114 108 -.118505 .0395451706
372922 .09265128868532 18 113 764 0 115 110 116 111 15e-6 1 29 114 912 0 117 118
 111 -.118505 -.00646426339171102 .1095755952804106 18 117 763 0 119 120 121 114
 ?1 29 118 913 0 121 122 114 -.118505 -.00591591234013384 .0673964323930947 18 1
21 761 0 123 117 124 118 ?1 29 122 914 0 124 125 118 -.118505 .0094546140420758
 .0598148555918404 18 124 750 0 126 121 0 122 ?1 29 125 917 0 116 127 122 -.1100
05 -.00646426339171102 .1095755952804106 18 116 752 0 128 113 129 125 ?1 29 127
 918 0 129 130 125 -.110005 -.00591591234013384 .0673964323930947 18 129 762 0 1
31 116 132 127 ?1 29 130 919 0 132 133 127 -.110005 .0094546140420758 .059814855
5918404 18 132 760 0 134 129 135 130 ?1 29 133 920 0 135 136 130 -.110005 .07552
5 .07702145519 18 135 759 0 137 132 120 133 ?1 29 136 921 0 120 0 133 -.110005 .
075525 .10202145519 18 120 757 0 138 135 117 136 ?1 17 138 0 139 140 141 120 142
 143 0 144 +15 255 139 140 0 138 145 0 17 140 0 139 146 138 135 147 148 0 149 +1
7 141 0 139 138 146 66 84 150 0 0 -17 142 0 151 152 144 66 138 143 0 141 -16 143
 131 0 ?138 153 154 155 0 0 1 17 144 0 151 142 112 120 156 157 0 147 +15 151 142
 0 152 158 0 17 112 0 151 144 159 110 115 160 23 161 -17 156 0 162 163 147 110 1
44 157 0 0 -16 157 728 0 ?144 148 164 165 0 0 1 17 147 0 162 156 149 120 140 148
 0 0 -15 162 778 0 166 167 168 17 149 0 162 147 169 135 170 171 0 0 -16 148 730
 0 ?140 171 157 172 0 0 1 16 171 732 0 ?170 173 148 174 0 0 1 30 255 172 893 0 1
48 175 174 0 +-.110005 .075525 .07702145519 0 0 -1 30 175 894 0 1 176 172 177 +-
.110005 .075525 .10202145519 0 .967721484280873 .2520220801065355 30 174 892 0 1
71 172 178 0 +-.110005 .0094546140420758 .0598148555918404 0 -.967721484280873 -
.2520220801065355 31 255 178 891 0 173 174 179 0 +-.110005 .003700841197825065 .
06752145519 -1 0 0 0 0 1 .00961756618431042 16 173 734 0 ?180 181 171 178 0 0 1
 30 179 890 0 181 178 182 0 +-.110005 -.00591591234013384 .0673964323930947 0 -.
01299942152821344 .999915503950175 16 181 736 0 ?183 184 173 179 0 0 1 31 182 88
9 0 185 179 186 0 +-.118505 .002317225707232375 .10252145519 -1 0 0 0 0 -1 .0112
639 16 185 717 0 ?187 188 189 182 0 0 1 30 186 888 0 1 182 190 191 +-.118505 .01
2144860363693 .0855154719210074 0 .0661251111822865 -.997811339718652 30 190 885
 0 192 186 193 0 +-.118505 .0094546140420758 .0598148555918404 0 -.9677214842808
73 -.2520220801065355 141 255 191 194 191 191 186 133 255 194 859 0 188 195 196
 0 +186 -.118505 .01061256898896006 .1086373643779714 -.118505 .0108195559427279
 .105513983169976 -.0231726094268317 -.0200423772038985 16 188 718 0 ?88 192 185
 194 0 0 1 137 195 860 0 1 197 194 198 -199 200 0 ?133 196 858 0 164 194 201 0 +
176 -.110005 .01061256898896006 .1086373643779714 -.110005 .0108195559427279 .10
5513983169976 -.0231726094268317 -.02004237720389855 16 164 727 0 ?202 157 203 1
96 0 0 1 30 201 857 0 204 196 205 0 +-.110005 .01061256898896006 .10863736437797
14 -1 0 0 30 176 895 0 1 206 175 207 +-.110005 .012144860363693 .085515471921007
4 0 .0661251111822865 -.997811339718652 31 206 896 0 203 208 176 0 +-.110005 .00
2317225707232375 .10252145519 -1 0 0 0 0 -1 .0112639 141 207 196 207 207 176 16
 203 726 0 ?209 164 210 206 0 0 1 31 208 897 0 211 212 206 0 +-.118505 .00231722
5707232375 .10252145519 -1 0 0 0 0 1 .0032639 16 211 738 0 ?213 189 214 208 0 0
 1 31 212 898 0 189 215 208 0 +-.110005 .002317225707232375 .10252145519 -1 0 0
 0 0 1 .0032639 16 189 719 0 ?216 185 211 212 0 0 1 31 215 899 0 217 218 212 0 +
-.118505 .00300903345252872 .08502145519 -1 0 0 0 0 1 .0032639 16 217 739 0 ?219
 214 220 215 0 0 1 31 218 900 0 214 221 215 0 +-.110005 .00300903345252872 .0850
2145519 -1 0 0 0 0 1 .0032639 16 214 720 0 ?222 211 217 218 0 0 1 31 221 901 0 2
23 224 218 0 +-.118505 .003700841197825065 .06752145519 -1 0 0 0 0 1 .0032639 16
 223 740 0 ?225 220 0 221 0 0 1 31 224 902 0 220 0 221 0 +-.110005 .003700841197
825065 .06752145519 -1 0 0 0 0 1 .0032639 16 220 721 0 ?226 217 223 224 0 0 1 17
 226 0 227 226 226 0 228 220 0 0 +15 227 781 0 226 167 0 17 228 0 229 228 228 0
 226 220 0 0 -15 229 827 0 228 230 231 14 255 230 824 232 ?233 234 229 6 235 +0
 0 233 234 28 15 231 828 0 225 230 0 17 225 0 231 225 225 0 236 223 0 0 +17 236
 0 237 236 236 0 225 223 0 0 -15 237 771 0 236 238 239 14 238 768 240 ?167 241 2
37 6 242 +0 0 167 241 28 15 239 772 0 243 238 244 17 243 0 239 243 243 0 213 211
 0 0 -15 244 773 0 245 238 246 17 245 0 244 245 245 0 219 217 0 0 -15 246 774 0
 94 238 0 17 94 0 246 126 88 92 247 248 0 249 -17 126 0 246 250 94 124 249 192 0
 251 +17 88 0 246 94 252 73 253 188 0 254 +17 247 0 255 256 257 73 94 248 0 0 +1
6 248 597 0 ?247 258 259 260 0 0 1 17 249 0 261 262 251 92 126 192 0 257 -15 261
 138 0 137 263 0 17 262 0 261 72 249 89 257 264 0 265 +17 251 0 261 249 170 124
 134 266 0 267 +16 192 714 0 ?126 268 188 190 0 0 1 17 257 0 255 247 265 92 262
 264 0 0 -15 255 637 0 257 269 0 17 265 0 255 257 256 89 55 270 0 0 +16 264 593
 0 ?262 259 271 272 0 0 1 16 259 598 0 ?256 248 264 273 0 0 1 16 271 603 0 ?274
 264 270 275 0 0 1 30 272 671 0 264 276 277 0 +-.03993230387312585 .013773506030
0097 .0609396173753027 -1 0 0 134 255 276 676 0 1 278 272 279 +280 281 30 277 67
0 0 1 272 282 283 +-.03993230387312585 .0395451706372922 .09265128868532 -1 0 0
 30 282 669 0 1 277 284 285 +-.03993230387312585 .0108195559427279 .105513983169
976 -1 0 0 141 283 275 283 283 277 133 275 660 0 271 286 273 0 +277 -.118505 .03
95451706372922 .09265128868532 -.131205 .0395451706372922 .09265128868532 .07857
26961268742 .0912726961268742 30 286 661 0 1 287 275 288 +-.131205 .013773506030
0097 .0609396173753027 0 .0661251111822865 -.997811339718652 133 273 658 0 259 2
75 289 0 +282 -.118505 .0108195559427279 .105513983169976 -.131205 .010819555942
7279 .105513983169976 .0785726961268742 .0912726961268742 31 289 293 0 290 273 2
91 0 +-.139705 .003700841197825065 .06752145519 -1 0 0 0 0 1 .0032639 16 290 273
 0 ?292 293 294 289 0 0 1 31 291 292 0 294 289 295 0 +-.131205 .0037008411978250
65 .06752145519 -1 0 0 0 0 1 .0032639 16 294 270 0 ?296 290 258 291 0 0 1 31 295
 255 0 297 291 298 0 +-.139705 .00300903345252872 .08502145519 -1 0 0 0 0 1 .003
2639 16 297 235 0 ?299 300 293 295 0 0 1 31 298 254 0 293 295 301 0 +-.131205 .0
0300903345252872 .08502145519 -1 0 0 0 0 1 .0032639 16 293 232 0 ?302 297 290 29
8 0 0 1 31 301 217 0 303 298 304 0 +-.139705 .002317225707232375 .10252145519 -1
 0 0 0 0 1 .0032639 16 303 197 0 ?305 306 300 301 0 0 1 31 304 216 0 300 301 307
 0 +-.131205 .002317225707232375 .10252145519 -1 0 0 0 0 1 .0032639 16 300 194 0
 ?308 303 297 304 0 0 1 31 307 7 0 309 304 310 0 +-.139705 .002317225707232375 .
10252145519 -1 0 0 0 0 -1 .0112639 16 309 5 0 ?38 311 312 307 0 0 1 30 310 11 0
 1 307 313 314 +-.139705 .012144860363693 .0855154719210074 0 .0661251111822865
 -.997811339718652 30 313 15 0 1 310 315 316 +-.139705 .075525 .10202145519 0 .9
67721484280873 .2520220801065355 141 314 317 314 314 310 133 317 476 0 311 318 3
19 0 +310 -.139705 .01061256898896006 .1086373643779714 -.139705 .01081955594272
79 .105513983169976 -.0231726094268317 -.02004237720389855 16 311 475 0 ?52 320
 309 317 0 0 1 133 318 472 0 321 322 317 0 +323 -.131205 .01061256898896006 .108
6373643779714 -.131205 .0108195559427279 .105513983169976 -.0231726094268317 -.0
200423772038985 30 319 480 0 324 317 325 0 +-.139705 .01061256898896006 .1086373
643779714 1 0 0 16 324 478 0 ?326 45 327 319 0 0 1 31 325 489 0 45 319 328 0 +-.
131205 .00662132363008546 .1083728639332422 1 0 0 0 0 -1 .004 16 45 487 0 ?39 30
 324 325 0 0 1 30 328 498 0 30 325 31 0 --.139705 .00899145423367477 .1115950496
699634 1 0 0 16 30 496 0 ?32 11 45 328 0 0 1 31 31 504 0 11 328 329 0 --.139705
 .00662132363008546 .1083728639332422 1 0 0 0 0 -1 .004 133 329 704 0 330 31 331
 0 +331 -.118505 .0108195559427279 .105513983169976 -.118505 .03954517063729225
 .09265128868532 0 1 17 330 0 332 274 333 113 254 258 329 159 +137 331 705 0 1 3
29 260 334 +335 336 0 ?133 260 709 0 248 331 337 0 +337 -.118505 .01377350603000
97 .0609396173753027 -.118505 .0108195559427279 .105513983169976 0 .044672137928
6406 141 334 329 334 334 331 67 255 335 651 0 241 338 339 340 +276 -1 0 0 .01157
861043000938 134 336 0 0 0 0 0 0 +341 342 136 255 341 1 2 2 2 5 FFF1 343 344 345
 135 255 342 1 0 45 255 4 343 1 .0785726961268742 0 .0785726961268742 127 255 2
 344 2 2 128 255 2 345 0 1 14 241 638 346 ?238 269 332 6 335 -0 0 238 269 28 50
 255 338 652 0 269 347 335 0 +-.03993230387312585 .0137735060300097 .06093961737
53027 0 .997811339718652 .0661251111822865 0 -.0661251111822865 .997811339718652
 51 339 289 0 348 335 349 0 --.139705 .003700841197825065 .06752145519 1 0 0 .00
32639 0 0 -1 141 340 350 351 351 335 137 350 667 0 1 284 287 352 +335 353 0 ?141
 351 331 340 340 335 133 284 668 0 354 282 350 0 +350 -.131205 .0395451706372922
5 .09265128868532 -.131205 .0108195559427279 .105513983169976 0 1 133 287 662 0
 270 350 286 0 +286 -.131205 .0108195559427279 .105513983169976 -.131205 .013773
5060300097 .0609396173753027 -.0446721379286406 0 141 352 284 352 352 350 134 35
3 0 0 0 0 0 0 +355 356 136 355 1 2 2 2 5 FFF1 357 358 359 135 356 2 0 45 4 357 0
 .0912726961268742 1 .0912726961268742 127 2 358 2 2 128 2 359 0 1 16 270 599 0
 ?265 271 360 287 0 0 1 16 360 745 0 ?361 270 362 278 0 0 1 17 361 0 363 106 97
 101 364 360 0 365 +16 362 748 0 ?97 360 366 367 0 0 1 31 278 854 0 360 367 276
 0 --.110005 .00662132363008546 .1083728639332422 1 0 0 0 0 -1 .004 30 367 855 0
 362 205 278 0 --.110005 .00899145423367477 .1115950496699634 -1 0 0 31 205 856
 0 366 201 367 0 +-.118505 .00662132363008546 .1083728639332422 1 0 0 0 0 -1 .00
4 16 366 747 0 ?368 362 204 205 0 0 1 17 368 0 363 97 106 98 252 366 0 187 +16 2
04 746 0 ?106 366 369 201 0 0 1 17 106 0 363 368 361 104 103 204 0 252 +16 369 7
41 0 15e-6 161 204 370 0 0 0 1 17 161 0 371 115 109 110 163 369 372 156 +16 370
 744 0 15e-6 109 369 160 0 0 0 1 17 109 0 371 161 254 107 373 370 197 202 +16 16
0 742 0 15e-6 115 370 266 0 0 0 1 17 115 0 371 254 161 113 112 160 374 330 +16 2
66 733 0 ?251 160 375 376 0 0 1 16 375 735 0 ?123 266 184 377 0 0 1 30 376 880 0
 266 377 165 0 +-.110005 .0094546140420758 .0598148555918404 -1 0 0 30 377 881 0
 375 378 376 0 +-.110005 -.00591591234013384 .0673964323930947 -1 0 0 133 165 87
6 0 157 376 379 0 +175 -.110005 .0395451706372922 .09265128868532 -.110005 .0755
25 .10202145519 -.0371799427285061 0 133 379 873 0 373 165 380 0 +380 -.110005 .
0108195559427279 .105513983169976 -.118505 .0108195559427279 .105513983169976 1
 0 17 373 0 381 253 202 73 109 370 379 333 -137 380 872 0 1 379 382 383 -384 385
 0 ?133 382 869 0 163 380 386 0 +386 -.110005 .03954517063729225 .09265128868532
 -.110005 .0108195559427279 .105513983169976 1 0 141 383 379 383 383 380 50 384
 842 0 387 388 389 390 +-.110005 .012144860363693 .0855154719210074 0 -.99781133
9718652 -.0661251111822865 0 .0661251111822865 -.997811339718652 134 385 0 0 0 0
 0 0 +391 392 136 391 1 2 2 2 5 FFF1 393 394 395 135 392 2 0 45 4 393 -.02004237
72038985 -.0085 -.02004237720389855 0 127 2 394 2 2 128 2 395 0 1 14 387 790 396
 ?397 398 381 6 384 -0 0 397 398 28 51 388 846 0 397 399 384 0 --.110005 .003700
841197825065 .06752145519 -1 0 0 .00961756618431042 0 0 -1 51 389 841 0 398 384
 199 0 --.110005 .002317225707232375 .10252145519 -1 0 0 .0112639 0 0 -1 141 390
 380 390 390 384 14 398 786 400 ?387 167 401 6 389 -0 0 387 167 28 124 255 199 8
40 0 233 389 347 402 +403 404 14 233 829 405 ?406 230 371 6 199 -0 0 406 230 28
 51 347 839 0 406 199 338 0 +-.110005 .00662132363008546 .1083728639332422 -1 0
 0 .004 0 0 -1 141 402 407 408 409 199 126 255 403 FF2 3 3 4 5 5 2 2 TFF11 4 410
 411 412 413 414 125 255 404 0 1 -.008925 425e-6 0 1 -.008925 425e-6 2 BBBBBBBB?
???0 0 0 0 45 48 410 -.11893 .0108195559427279 .105513983169976 1 -.115813333333
3332 .0108195559427279 .105513983169976 1 -.1126966666666666 .0108195559427279 .
105513983169976 1 -.10958 .0108195559427279 .105513983169976 1 -.075804241194464
1 .00774095622872674 .054506310092983 .637385362771917 -.0738177234804916 .00774
095622872674 .054506310092983 .637385362771917 -.0718312057665192 .0077409562287
2674 .054506310092983 .637385362771917 -.0698446880525467 .00774095622872674 .05
4506310092983 .637385362771917 -.11893 .03954517063729225 .09265128868532 1 -.11
58133333333332 .03954517063729225 .09265128868532 1 -.1126966666666666 .03954517
063729225 .09265128868532 1 -.10958 .03954517063729225 .09265128868532 1 127 2 4
11 3 3 127 2 412 4 4 128 2 413 0 1 128 2 414 -.008925 425e-6 137 407 866 0 1 415
 374 416 -199 417 0 ?141 408 195 418 402 199 141 409 419 402 418 199 137 419 864
 0 1 374 372 420 -199 421 0 ?141 418 422 409 408 199 137 422 862 0 1 372 197 423
 -199 424 0 ?133 372 863 0 161 419 422 0 +422 -.110005 .0108195559427279 .105513
983169976 -.110005 .03954517063729225 .09265128868532 1 0 133 197 861 0 109 422
 195 0 +195 -.118505 .0108195559427279 .105513983169976 -.110005 .01081955594272
79 .105513983169976 1 0 141 423 372 423 423 422 134 424 0 0 0 0 0 0 +425 426 136
 425 1 2 2 2 5 FFF1 427 428 429 135 426 2 0 45 4 427 1 -4056240600494935e-33 0 -
4056240600494935e-33 127 2 428 2 2 128 2 429 0 1 133 374 865 0 115 407 419 0 +41
9 -.110005 .03954517063729225 .09265128868532 -.118505 .03954517063729225 .09265
128868532 1 0 141 420 374 420 420 419 134 421 0 0 0 0 0 0 +430 431 136 430 1 2 2
 2 5 FFF1 432 433 434 135 431 2 0 45 4 432 1 -.0085 1 -552943107967607e-32 127 2
 433 2 2 128 2 434 0 1 133 415 867 0 254 386 407 0 +407 -.118505 .03954517063729
225 .09265128868532 -.118505 .0108195559427279 .105513983169976 1 0 141 416 415
 416 416 407 134 417 0 0 0 0 0 0 +435 436 136 435 1 2 2 2 5 FFF1 437 438 439 135
 436 2 0 45 4 437 3117285107853585e-31 -.0085 1 -.0085 127 2 438 2 2 128 2 439 0
 1 17 254 0 371 109 115 73 330 258 415 373 -137 386 868 0 1 382 415 440 -441 442
 0 ?141 440 382 440 440 386 50 441 849 0 167 443 242 444 +-.110005 .002317225707
232375 .10252145519 -1 0 0 0 0 -1 134 442 0 0 0 0 0 0 +445 446 136 445 2 13 2 7
 5 FFF1 447 448 449 135 446 2 0 45 26 447 -.00299252797997597 -.0085023302354955
2 -.000755386735186468 -.0086505859303886 .00129895573966124 -.00962987438596228
 .003262032176061065 -.01056565705857512 .00492595369961792 -.01219854765887976
 .0064547398238762 -.01369882303655576 .00764157493123815 -.01570197213505735 .0
0873513582098629 -.0175476923171344 .00948383034455369 -.0197302060163648 .01086
85504201317 -.02376679295458395 .01093860292388454 -.0284341776625811 .011005175
500079 -.03286970540900125 .00987016650467995 -.03722794493005985 127 7 448 3 2
 2 2 2 2 3 128 7 449 0 .125 .25 .375 .5 .75 1 14 167 775 450 ?398 238 162 6 441
 -0 0 398 238 28 51 443 850 0 451 452 441 0 --.110005 .002317225707232375 .10252
145519 -1 0 0 .0032639 0 0 -1 50 242 848 0 238 441 399 0 +-.118505 .002317225707
232375 .10252145519 -1 0 0 0 0 -1 141 444 386 444 444 441 50 399 847 0 453 242 3
88 0 +-.110005 -.00591591234013384 .0673964323930947 0 .999915503950175 .0129994
2152821344 0 -.01299942152821344 .999915503950175 14 453 810 454 ?451 397 455 6
 399 -0 0 451 397 28 81 1 454 1129 456 453 457 0 450 458 459 14 451 814 458 ?234
 453 460 6 443 +0 0 234 453 28 14 397 806 461 ?453 387 462 6 388 -0 0 453 387 28
 15 455 813 0 463 453 0 13 28 55 0 0 0 0 0 0 10 20 14 20 267 464 ?465 0 466 6 46
7 -0 0 465 0 28 81 1 464 1138 456 20 468 0 461 469 470 14 465 261 469 ?471 20 41
 6 472 +0 0 471 20 28 15 466 4 0 38 20 473 50 467 3 0 20 474 472 475 +-.139705 .
002317225707232375 .10252145519 1 0 0 0 0 -1 51 474 213 0 476 349 467 0 --.13970
5 .002317225707232375 .10252145519 1 0 0 .0032639 0 0 -1 50 472 112 0 465 467 47
7 0 +-.131205 .002317225707232375 .10252145519 1 0 0 0 0 -1 141 475 478 475 475
 467 137 478 420 0 1 479 480 481 +467 482 0 ?133 479 419 0 58 483 478 0 +478 -.1
39705 .0108195559427279 .105513983169976 -.139705 .03954517063729225 .0926512886
8532 0 1 133 480 451 0 61 478 484 0 +484 -.131205 .0108195559427279 .10551398316
9976 -.131205 .03954517063729225 .09265128868532 0 1 141 481 479 481 481 478 134
 482 0 0 0 0 0 0 +485 486 136 485 2 13 2 7 5 FFF1 487 488 489 135 486 2 0 45 26
 487 -.00299252797997597 .00850233023549552 -.000755386735186468 .00865058593038
86 .00129895573966124 .00962987438596228 .003262032176061065 .01056565705857512
 .00492595369961792 .01219854765887976 .0064547398238762 .01369882303655576 .007
64157493123815 .01570197213505735 .00873513582098629 .0175476923171344 .00948383
034455369 .0197302060163648 .0108685504201317 .02376679295458395 .01093860292388
454 .0284341776625811 .011005175500079 .03286970540900125 .00987016650467995 .03
722794493005985 127 7 488 3 2 2 2 2 2 3 128 7 489 0 .125 .25 .375 .5 .75 1 17 61
 0 490 491 492 59 354 493 480 494 -137 484 450 0 1 480 495 496 +18 497 0 ?133 49
5 449 0 491 484 498 0 +498 -.131205 .03954517063729225 .09265128868532 -.139705
 .03954517063729225 .09265128868532 0 1 141 496 480 496 496 484 124 18 442 499 5
00 501 7 502 -503 504 134 497 0 0 0 0 0 0 +505 506 136 505 1 2 2 2 5 FFF1 507 50
8 509 135 506 2 0 45 4 507 3117285107853585e-31 -.0085 1 -.0085 127 2 508 2 2 12
8 2 509 0 1 81 2 499 443 510 18 0 0 0 0 511 512 14 500 430 513 ?22 348 490 6 18
 -0 0 22 348 28 51 501 154 0 471 514 18 0 --.139705 .002317225707232375 .1025214
5519 1 0 0 .0112639 0 0 -1 141 502 484 515 516 18 126 503 FF2 3 3 4 5 5 2 2 TFF1
1 4 517 518 519 520 521 125 504 0 1 -.008925 425e-6 0 1 -.008925 425e-6 2 BBBBBB
BB????0 0 0 0 45 48 517 -.13078 .0108195559427279 .105513983169976 1 -.133896666
6666666 .0108195559427279 .105513983169976 1 -.1370133333333334 .010819555942727
9 .105513983169976 1 -.14013 .0108195559427279 .105513983169976 1 -.083357257743
3113 .00774095622872674 .054506310092983 .637385362771917 -.0853437754572838 .00
774095622872674 .054506310092983 .637385362771917 -.0873302931712563 .0077409562
2872674 .054506310092983 .637385362771917 -.0893168108852287 .00774095622872674
 .054506310092983 .637385362771917 -.13078 .03954517063729225 .09265128868532 1
 -.1338966666666666 .03954517063729225 .09265128868532 1 -.1370133333333334 .039
54517063729225 .09265128868532 1 -.14013 .03954517063729225 .09265128868532 1 12
7 2 518 3 3 127 2 519 4 4 128 2 520 0 1 128 2 521 -.008925 425e-6 141 515 4 522
 502 18 141 516 498 502 523 18 137 498 448 0 1 495 524 525 +18 526 0 ?141 523 52
7 516 528 18 137 527 446 0 1 524 529 530 +18 531 0 ?141 528 322 523 532 18 137 3
22 444 0 1 529 318 533 +18 534 0 ?141 532 535 528 522 18 137 535 458 0 1 0 17 0
 +18 536 0 ?141 522 17 532 515 18 137 17 459 0 1 535 4 0 +18 537 0 ?134 537 0 0
 0 0 0 0 +538 539 136 538 1 2 2 2 1 FFF1 540 541 542 135 539 1 0 45 4 540 .43266
47049341545 -.008925 .4326647049341545 425e-6 127 2 541 2 2 128 2 542 -.008925 4
25e-6 134 536 0 0 0 0 0 0 +543 544 136 543 1 2 2 2 1 FFF1 545 546 547 135 544 1
 0 45 4 545 .5 -.008925 .5 425e-6 127 2 546 2 2 128 2 547 -.008925 425e-6 133 52
9 445 0 492 527 322 0 +322 -.139705 .0108195559427279 .105513983169976 -.131205
 .0108195559427279 .105513983169976 0 1 141 533 529 533 533 322 134 534 0 0 0 0
 0 0 +548 549 136 548 1 2 2 2 5 FFF1 550 551 552 135 549 2 0 45 4 550 0 -5529431
07967607e-32 0 -.0085 127 2 551 2 2 128 2 552 0 1 17 492 0 490 61 553 53 554 555
 529 256 -15 490 431 0 553 500 0 17 553 0 490 492 491 50 58 327 524 0 -17 554 0
 556 557 558 50 492 555 559 553 +16 555 391 0 15e-6 554 493 153 0 0 0 1 17 256 0
 255 265 247 53 333 259 0 354 +17 333 0 332 330 354 73 256 259 0 247 -17 354 0 3
32 333 274 53 61 493 284 0 +15 332 643 0 333 241 0 17 274 0 332 354 330 59 159 2
71 0 0 +16 493 400 0 15e-6 354 327 555 0 0 0 1 16 327 405 0 15e-6 58 324 493 0 0
 0 1 17 58 0 466 86 52 56 553 327 479 152 +17 86 0 466 84 58 66 152 320 0 142 +1
7 52 0 466 58 29 50 557 311 0 554 +17 152 0 151 494 142 56 86 320 0 491 -17 494
 0 151 159 152 59 491 153 560 274 +16 320 368 0 ?86 150 311 561 0 0 1 17 491 0 4
90 553 61 56 494 153 495 0 -16 153 372 0 15e-6 494 555 143 0 0 0 1 16 150 17 0 ?
84 562 320 315 0 0 1 133 561 370 0 320 155 560 0 +313 -.139705 .0395451706372922
 .09265128868532 -.139705 .075525 .10202145519 -.0371799427285061 0 30 155 159 0
 143 563 561 0 +-.139705 .075525 .10202145519 1 0 0 133 560 374 0 494 561 564 0
 +564 -.139705 .0395451706372922 .09265128868532 -.131205 .0395451706372922 .092
65128868532 0 1 137 564 375 0 1 560 559 565 +25 566 0 ?133 559 393 0 554 564 483
 0 +483 -.131205 .0108195559427279 .105513983169976 -.139705 .0108195559427279 .
105513983169976 0 1 141 565 560 565 565 564 50 25 152 0 158 567 514 568 +-.13970
5 .075525 .10202145519 0 .2520220801065355 -.967721484280873 0 .967721484280873
 .2520220801065355 134 566 0 0 0 0 0 0 +569 570 136 569 1 2 2 2 5 FFF1 571 572 5
73 135 570 2 0 45 4 571 -.0371799427285061 0 -.0371799427285061 .0085 127 2 572
 2 2 128 2 573 0 1 14 158 143 574 ?145 575 151 6 25 -0 0 145 575 28 50 567 151 0
 145 576 25 0 +-.139705 .075525 .07702145519 0 -1 0 0 0 -1 50 514 153 0 575 25 5
01 577 +-.139705 .012144860363693 .0855154719210074 0 -.997811339718652 -.066125
1111822865 0 .0661251111822865 -.997811339718652 141 568 564 578 578 25 141 578
 8 568 568 25 14 575 145 579 ?158 471 556 6 514 -0 0 158 471 28 141 577 483 577
 577 514 137 483 394 0 1 559 479 580 +514 581 0 ?141 580 559 580 580 483 134 581
 0 0 0 0 0 0 +582 583 136 582 1 2 2 2 5 FFF1 584 585 586 135 583 2 0 45 4 584 -.
0200423772038985 .0085 -.02004237720389855 0 127 2 585 2 2 128 2 586 0 1 81 1 57
9 1152 456 575 587 0 574 588 589 14 471 147 588 ?575 465 34 6 501 -0 0 575 465 2
8 15 556 144 0 557 575 0 17 557 0 556 326 554 40 52 311 0 590 -17 326 0 556 558
 557 46 590 324 0 43 +17 590 0 591 592 44 40 326 324 0 0 -15 591 515 0 592 22 0
 17 592 0 591 37 590 12 29 11 0 0 -17 44 0 591 590 37 46 39 45 0 326 -17 37 0 59
1 44 592 33 32 30 0 0 -17 29 0 466 52 38 40 592 11 0 557 +17 38 0 466 29 75 12 3
5 309 0 592 +17 75 0 466 38 78 62 593 594 0 595 +17 35 0 34 596 32 62 38 309 0 0
 -15 34 146 0 36 471 0 17 596 0 34 36 35 63 595 597 0 42 +17 36 0 34 32 596 33 4
2 306 0 37 +17 595 0 598 593 65 62 596 597 0 35 -16 597 127 0 ?596 599 594 600 0
 0 1 17 42 0 41 601 39 63 36 306 0 0 -15 41 574 0 55 465 602 17 601 0 41 603 42
 67 65 312 0 0 -16 306 101 0 ?36 321 303 604 0 0 1 16 321 471 0 ?558 605 306 318
 0 0 1 31 604 119 0 306 606 323 0 +-.131205 .002317225707232375 .10252145519 -1
 0 0 0 0 -1 .0112639 30 606 31 0 594 607 604 0 +-.139705 -.00591591234013384 .06
73964323930947 0 -.01299942152821344 .999915503950175 30 323 118 0 1 604 608 609
 +-.131205 .012144860363693 .0855154719210074 0 .0661251111822865 -.997811339718
652 30 608 115 0 605 323 610 0 +-.131205 .0094546140420758 .0598148555918404 0 -
.967721484280873 -.2520220801065355 141 609 318 609 609 323 16 605 571 0 ?72 611
 321 608 0 0 1 31 610 114 0 611 608 612 0 +-.131205 .003700841197825065 .0675214
5519 -1 0 0 0 0 1 .00961756618431042 16 611 81 0 ?69 312 605 610 0 0 1 30 612 11
3 0 312 610 600 0 +-.131205 -.00591591234013384 .0673964323930947 0 -.0129994215
2821344 .999915503950175 16 312 77 0 ?65 309 611 612 0 0 1 30 600 155 0 597 612
 613 0 +-.139705 -.00646426339171102 .1095755952804106 1 0 0 30 613 156 0 599 60
0 614 0 +-.139705 -.00591591234013384 .0673964323930947 1 0 0 16 599 128 0 ?615
 616 597 613 0 0 1 30 614 157 0 616 613 563 0 +-.139705 .0094546140420758 .05981
48555918404 1 0 0 16 616 129 0 ?617 154 599 614 0 0 1 30 563 158 0 154 614 155 0
 +-.139705 .075525 .07702145519 1 0 0 16 154 130 0 ?137 143 616 563 0 0 1 17 137
 0 261 170 618 135 146 154 0 140 +17 170 0 261 251 137 132 149 171 0 169 +17 618
 0 261 137 619 82 81 562 0 0 -17 146 0 139 141 140 82 137 154 0 618 -17 619 0 26
1 618 72 79 617 616 0 620 -17 81 0 466 78 84 79 618 562 0 619 +16 562 21 0 ?81 6
21 150 622 0 0 1 16 621 25 0 ?78 594 562 607 0 0 1 30 622 23 0 562 315 607 0 +-.
139705 .0094546140420758 .0598148555918404 0 -.967721484280873 -.252022080106535
5 30 315 19 0 150 313 622 0 +-.139705 .075525 .07702145519 0 0 -1 31 607 27 0 62
1 622 606 0 +-.139705 .003700841197825065 .06752145519 -1 0 0 0 0 1 .00961756618
431042 17 78 0 466 75 81 76 620 621 0 623 +16 594 29 0 ?75 597 621 606 0 0 1 17
 620 0 624 617 623 79 78 621 0 0 -17 623 0 624 620 69 76 615 599 0 593 -15 624 1
36 0 69 625 0 17 69 0 624 623 617 67 603 611 0 615 +17 615 0 598 65 593 67 623 5
99 0 601 +17 593 0 598 615 595 76 75 594 0 0 -15 598 134 0 65 626 0 17 65 0 598
 595 615 63 601 312 0 596 +14 626 135 627 ?476 625 598 6 477 -0 0 476 625 28 81
 1 627 1158 456 626 628 0 588 629 630 14 476 200 629 ?631 626 632 6 474 +0 0 631
 626 28 14 625 137 633 ?626 263 624 6 634 -0 0 626 263 28 50 477 148 0 626 472 6
34 0 +-.139705 -.00591591234013384 .0673964323930947 0 .999915503950175 .0129994
2152821344 0 -.01299942152821344 .999915503950175 51 634 149 0 625 477 576 0 --.
139705 .003700841197825065 .06752145519 1 0 0 .00961756618431042 0 0 -1 50 576 1
50 0 263 634 567 0 +-.139705 .0094546140420758 .0598148555918404 0 -.25202208010
65355 .967721484280873 0 -.967721484280873 -.2520220801065355 14 263 139 635 ?62
5 145 261 6 576 -0 0 625 145 28 81 1 635 1169 456 263 636 0 633 637 638 14 145 1
41 637 ?263 158 139 6 567 -0 0 263 158 28 81 1 637 1174 456 145 639 0 635 640 64
1 80 7 CCCCCDI12 legal_owners0 16 1 lCZ1 456 642 643 9000 1 1 1 1 1 1 1 1 0 FFFF
TFTFFFFFFFFF1 81 3 639 1170 644 145 645 637 636 646 647 0 0 81 1 640 1177 456 22
 646 0 637 648 649 82 255 1 641 1366522264 14 22 514 640 ?269 500 591 6 7 +0 0 2
69 500 28 81 3 646 1175 644 22 650 640 639 651 652 0 0 81 1 648 1180 456 234 651
 0 640 653 654 82 1 649 1393785237 14 234 819 648 ?230 451 655 6 452 +0 0 230 45
1 28 81 3 651 1179 644 234 656 648 646 657 658 0 0 81 1 653 1183 456 406 657 0 6
48 659 660 82 1 654 1542027672 14 406 833 653 ?0 233 363 6 347 +0 0 0 233 28 81
 3 657 1182 644 406 661 653 651 662 663 0 0 81 1 659 1186 456 269 662 0 653 664
 665 82 1 660 1542486424 14 269 634 659 ?241 22 255 6 338 -0 0 241 22 28 81 3 66
2 1184 644 269 666 659 657 667 668 0 0 81 1 664 1189 456 348 667 0 659 669 670 8
2 1 665 1520204184 14 348 276 664 ?500 631 671 6 339 +0 0 500 631 28 81 3 667 11
87 644 348 672 664 662 673 674 0 0 81 1 669 1192 456 631 673 0 664 0 675 82 1 67
0 1350072723 14 631 238 669 ?348 476 676 6 349 +0 0 348 476 28 81 3 673 1190 644
 631 677 669 667 0 678 0 0 82 1 675 1346009491 80 3 644 679 680 9000 0 0 0 0 3 5
 0 0 0 FFFFTFFFFFFFFFFF1 1 1 81 1 677 1088 681 631 0 673 682 672 683 82 6 678 0
 998391510 31147147 0 0 0 80 1 681 0 684 8001 0 0 0 0 3 5 0 0 0 FFFFTFTFFFFFFFFF
2 81 1 682 1087 681 476 0 685 686 677 687 81 1 672 1089 681 348 0 667 677 688 68
9 83 255 3 683 .501960784313726 .501960784313726 1 81 1 688 1090 681 500 0 690 6
72 650 691 83 3 689 .501960784313726 .501960784313726 1 81 3 690 1142 644 500 68
8 513 692 693 694 0 0 81 1 650 1091 681 22 0 646 688 666 695 83 3 691 .501960784
313726 .501960784313726 1 81 1 666 1092 681 269 0 662 650 696 697 83 3 695 .5019
60784313726 .501960784313726 1 81 1 696 1093 681 241 0 698 666 699 700 83 3 697
 .501960784313726 .501960784313726 1 81 3 698 1112 644 241 696 346 701 702 703 0
 0 81 1 699 1094 681 238 0 701 696 704 705 83 3 700 .501960784313726 .5019607843
13726 1 81 3 701 1109 644 238 699 240 706 698 707 0 0 81 1 704 1095 681 167 0 70
8 699 709 710 83 3 705 .501960784313726 .501960784313726 1 81 3 708 1125 644 167
 704 450 711 457 712 0 0 81 1 709 1096 681 398 0 713 704 714 715 83 3 710 .50196
0784313726 .501960784313726 1 81 3 713 1119 644 398 709 400 702 711 716 0 0 81 1
 714 1097 681 387 0 702 709 717 718 83 3 715 .501960784313726 .501960784313726 1
 81 3 702 1116 644 387 714 396 698 713 719 0 0 81 1 717 1098 681 397 0 720 714 7
21 722 83 3 718 .501960784313726 .501960784313726 1 81 3 720 1134 644 397 717 46
1 723 468 724 0 0 81 1 721 1099 681 453 0 457 717 725 726 83 3 722 .501960784313
726 .501960784313726 1 81 3 457 1128 644 453 721 454 708 723 727 0 0 81 1 725 11
00 681 451 0 723 721 656 728 83 3 726 .501960784313726 .501960784313726 1 81 3 7
23 1131 644 451 725 458 457 720 729 0 0 81 1 656 1101 681 234 0 651 725 730 731
 83 3 728 .501960784313726 .501960784313726 1 81 1 730 1102 681 230 0 706 656 73
2 733 83 3 731 .501960784313726 .501960784313726 1 81 3 706 1107 644 230 730 232
 0 701 734 0 0 81 1 732 1103 681 233 0 711 730 661 735 83 3 733 .501960784313726
 .501960784313726 1 81 3 711 1122 644 233 732 405 713 708 736 0 0 81 1 661 1104
 681 406 0 657 732 0 737 83 3 735 .501960784313726 .501960784313726 1 83 3 737 .
501960784313726 .501960784313726 1 81 1 405 1123 456 233 711 0 400 450 738 82 6
 736 0 998491533 31147147 0 0 0 81 1 400 1120 456 398 713 0 396 405 739 81 1 450
 1126 456 167 708 0 405 454 740 82 1 738 1536457112 82 1 740 1535211928 81 1 396
 1117 456 387 702 0 346 400 741 82 1 739 1535146392 81 1 346 1114 456 241 698 0
 240 396 742 82 1 741 1540454808 81 1 240 1111 456 238 701 0 232 346 743 82 1 74
2 1520335256 81 1 232 1108 456 230 706 0 0 240 744 82 1 743 1552316824 82 1 744
 1534687640 82 6 734 0 998491533 31147147 0 0 0 81 1 458 1132 456 451 723 0 454
 461 745 82 6 729 0 998491533 31147147 0 0 0 81 1 461 1135 456 397 720 0 458 464
 746 82 1 745 1541831064 82 1 746 1541437848 82 6 727 0 998491533 31147147 0 0 0
 81 3 468 1136 644 20 747 464 720 692 748 0 0 82 6 724 0 998491533 31147147 0 0
 0 81 1 747 1078 681 20 0 468 0 749 750 81 3 692 1139 644 465 749 469 468 690 75
1 0 0 82 6 748 0 998471530 31147147 0 0 0 81 1 749 1079 681 465 0 692 747 752 75
3 81 1 469 1141 456 465 692 0 464 513 754 82 6 751 0 998561549 31147147 0 0 0 81
 1 513 1144 456 500 690 0 469 574 755 82 1 754 1373141400 81 1 574 1149 456 158
 693 0 513 579 756 82 1 755 1380743576 81 3 693 1145 644 158 757 574 690 587 758
 0 0 82 1 756 1366784408 81 1 757 1082 681 158 0 693 759 645 760 81 3 587 1150 6
44 575 759 579 693 761 762 0 0 82 6 758 0 998561549 31147147 0 0 0 81 1 759 1081
 681 575 0 587 752 757 763 81 3 761 1153 644 471 752 588 587 628 764 0 0 82 6 76
2 0 998471530 31147147 0 0 0 81 1 752 1080 681 471 0 761 749 759 765 81 1 588 11
55 456 471 761 0 579 627 766 81 3 628 1156 644 626 686 627 761 685 767 0 0 82 6
 764 0 998471530 31147147 0 0 0 81 1 686 1086 681 626 0 628 768 682 769 81 3 685
 1159 644 476 682 629 628 770 771 0 0 82 6 767 0 998391510 31147147 0 0 0 81 1 6
29 1161 456 476 685 0 627 633 772 81 3 770 1162 644 625 768 633 685 636 773 0 0
 82 6 771 0 998391510 31147147 0 0 0 81 1 768 1085 681 625 0 770 774 686 775 81
 1 633 1164 456 625 770 0 629 635 776 81 3 636 1165 644 263 774 635 770 639 777
 0 0 82 6 773 0 998391510 31147147 0 0 0 81 1 774 1084 681 263 0 636 645 768 778
 82 6 777 0 998561549 31147147 0 0 0 81 1 645 1083 681 145 0 639 757 774 779 83
 3 778 .501960784313726 .501960784313726 1 83 3 779 .501960784313726 .5019607843
13726 1 82 1 776 1365997971 83 3 775 .501960784313726 .501960784313726 1 82 1 77
2 1341880723 83 3 769 .501960784313726 .501960784313726 1 82 1 766 1367308693 83
 3 765 .501960784313726 .501960784313726 1 83 3 763 .501960784313726 .5019607843
13726 1 83 3 760 .501960784313726 .501960784313726 1 83 3 753 .501960784313726 .
501960784313726 1 83 3 750 .501960784313726 .501960784313726 1 82 6 719 0 998491
533 31147147 0 0 0 82 6 716 0 998491533 31147147 0 0 0 82 6 712 0 998491533 3114
7147 0 0 0 82 6 707 0 998561549 31147147 0 0 0 82 6 703 0 998561549 31147147 0 0
 0 82 6 694 0 998431521 31147147 0 0 0 83 3 687 .501960784313726 .50196078431372
6 1 79 255 15 684 SDL/TYSA_COLOUR79 18 680 DOWNSTREAM_FACE_ID15 676 241 0 299 63
1 780 51 349 251 0 631 339 474 0 --.139705 .00300903345252872 .08502145519 1 0 0
 .0032639 0 0 -1 17 299 0 676 299 299 0 781 297 0 0 +15 780 242 0 782 631 0 17 7
82 0 780 782 782 0 302 293 0 0 -17 302 0 602 302 302 0 782 293 0 0 +15 602 220 0
 302 465 783 15 783 182 0 308 465 784 17 308 0 783 308 308 0 785 300 0 0 +15 784
 258 0 296 465 0 17 296 0 784 296 296 0 786 294 0 0 +17 786 0 787 786 786 0 296
 294 0 0 -15 787 280 0 786 348 0 17 785 0 788 785 785 0 308 300 0 0 -15 788 204
 0 785 476 0 17 781 0 789 781 781 0 299 297 0 0 -15 789 227 0 781 20 790 15 790
 265 0 791 20 0 17 791 0 790 791 791 0 292 290 0 0 -17 292 0 671 292 292 0 791 2
90 0 0 +15 671 279 0 292 348 787 82 6 674 0 998391510 31147147 0 0 0 82 6 668 0
 998561549 31147147 0 0 0 82 6 663 0 998491533 31147147 0 0 0 15 363 836 0 361 4
06 0 82 6 658 0 998491533 31147147 0 0 0 15 655 822 0 792 234 793 51 452 851 0 2
34 235 443 0 --.110005 .00300903345252872 .08502145519 -1 0 0 .0032639 0 0 -1 51
 235 852 0 230 0 452 0 --.110005 .003700841197825065 .06752145519 -1 0 0 .003263
9 0 0 -1 17 792 0 655 792 792 0 222 214 0 0 -15 793 823 0 219 234 0 17 219 0 793
 219 219 0 245 217 0 0 +17 222 0 794 222 222 0 792 214 0 0 +15 794 780 0 222 167
 227 82 6 652 0 998471530 31147147 0 0 0 82 6 647 0 998561549 31147147 0 0 0 79
 14 643 SWEntUnchanged82 1 638 1366260120 15 632 203 0 305 476 788 17 305 0 632
 305 305 0 795 303 0 0 +17 795 0 473 795 795 0 305 303 0 0 -15 473 189 0 795 20
 789 82 1 630 1365735827 17 617 0 624 69 620 70 619 616 0 603 +17 603 0 41 91 60
1 70 69 611 0 0 -17 91 0 41 55 603 89 72 605 0 262 -17 55 0 41 43 91 53 265 270
 0 558 -17 72 0 261 619 262 70 91 605 0 617 +17 43 0 41 39 55 46 558 321 0 0 -17
 558 0 556 554 326 53 43 321 0 492 +17 84 0 466 81 86 82 141 150 0 146 +17 169 0
 162 149 796 132 180 173 0 0 -17 796 0 162 169 166 129 183 181 0 0 -17 180 0 462
 123 134 129 169 173 0 796 +15 462 809 0 267 397 0 17 123 0 462 267 180 121 131
 375 0 463 +17 134 0 462 180 267 132 251 266 0 170 -17 267 0 462 134 123 124 250
 268 0 0 -17 250 0 246 797 126 121 267 268 0 0 +16 268 715 0 ?250 210 192 193 0
 0 1 16 210 716 0 ?797 203 268 798 0 0 1 31 193 884 0 268 190 798 0 +-.118505 .0
03700841197825065 .06752145519 -1 0 0 0 0 1 .00961756618431042 30 798 883 0 210
 193 378 0 +-.118505 -.00591591234013384 .0673964323930947 0 -.01299942152821344
 .999915503950175 30 378 882 0 184 798 377 0 +-.110005 -.00646426339171102 .1095
755952804106 -1 0 0 16 184 737 0 ?119 375 181 378 0 0 1 17 119 0 455 463 183 117
 128 184 0 799 +17 463 0 455 131 119 121 797 210 0 250 -17 183 0 455 119 131 116
 796 181 0 166 +17 128 0 401 209 799 116 119 184 0 183 -17 799 0 401 128 100 117
 187 185 0 797 -15 401 789 0 799 398 0 17 100 0 401 799 209 98 97 362 0 368 -17
 187 0 246 252 797 98 799 185 0 0 +17 797 0 246 187 250 117 463 210 0 0 +17 252
 0 246 88 187 104 368 366 0 253 -17 253 0 381 103 373 104 88 188 0 0 -15 381 793
 0 202 387 0 17 103 0 381 202 253 101 106 204 0 361 -17 202 0 381 373 103 107 36
5 164 0 163 +17 365 0 162 364 163 101 202 164 0 0 -17 163 0 162 365 156 107 161
 369 382 0 -17 364 0 162 166 365 95 361 360 0 209 -17 166 0 162 796 364 116 209
 203 0 0 -17 209 0 401 100 128 95 166 203 0 0 +17 97 0 363 361 368 95 100 362 0
 364 +17 131 0 455 183 463 129 123 375 0 180 -82 1 589 1367046552 17 159 0 151 1
12 494 113 274 271 0 0 -133 524 447 0 553 498 527 0 +527 -.139705 .0395451706372
9225 .09265128868532 -.139705 .0108195559427279 .105513983169976 0 1 141 530 524
 530 530 527 134 531 0 0 0 0 0 0 +800 801 136 800 1 2 2 2 5 FFF1 802 803 804 135
 801 2 0 45 4 802 1 -4056240600494935e-33 0 -4056240600494935e-33 127 2 803 2 2
 128 2 804 0 1 141 525 495 525 525 498 134 526 0 0 0 0 0 0 +805 806 136 805 1 2
 2 2 5 FFF1 807 808 809 135 806 2 0 45 4 807 1 -.0085 1 -552943107967607e-32 127
 2 808 2 2 128 2 809 0 1 80 2 510 810 811 8044 0 0 0 0 3 5 0 0 0 FFFFTFFFTTFFFFF
F3 2 84 255 6 511 HACBAB83 2 512 .025 .015 79 17 811 SDL/TYSA_BLEND_ID82 1 470 1
373665685 15 460 817 0 812 451 813 17 812 0 460 812 812 0 216 189 0 0 -15 813 81
8 0 213 451 0 17 213 0 813 213 213 0 243 211 0 0 +17 216 0 168 216 216 0 812 189
 0 0 +15 168 779 0 216 167 794 82 1 459 1541634456 15 371 832 0 161 233 0 16 258
 602 0 15e-6 330 294 248 0 0 0 1 30 337 710 0 1 260 23 814 +-.118505 .0137735060
300097 .0609396173753027 0 -.0661251111822865 .997811339718652 133 23 923 0 112
 337 8 0 +8 -.118505 .0395451706372922 .09265128868532 -.110005 .039545170637292
2 .09265128868532 1 0 141 814 260 814 814 337 141 316 561 316 316 313 141 288 28
7 288 288 286 141 285 273 285 285 282 141 279 335 279 279 276 136 280 2 13 3 7 5
 FFF1 815 816 817 135 281 2 0 45 39 815 -.03993230387312585 .03954517063729225 .
09265128868532 -.03993230387312585 .0351979088367031 .0915191385992172 -.0399323
0387312585 .0307729548272721 .0915825361474648 -.03993230387312585 .026104595948
57385 .091649421025052 -.03993230387312585 .0220655049257035 .0930314329555114 -
.03993230387312585 .019877954615746 .0937799232989386 -.03993230387312585 .01802
8060746976 .0948746322979371 -.03993230387312585 .016019886153379 .0960630068508
149 -.03993230387312585 .01451647076143176 .0975947908887885 -.03993230387312585
 .01288663878056874 .0992553769292384 -.03993230387312585 .01195110852869334 .10
1214098792018 -.03993230387312585 .01096812035818314 .1032721834093484 -.0399323
0387312585 .0108195559427279 .105513983169976 127 7 816 3 2 2 2 2 2 3 128 7 817
 0 .25 .5 .625 .75 .875 1 141 198 197 198 198 195 134 200 0 0 0 0 0 0 +818 819 1
36 818 1 2 2 2 5 FFF1 820 821 822 135 819 2 0 45 4 820 0 -552943107967607e-32 0
 -.0085 127 2 821 2 2 128 2 822 0 1 141 177 165 177 177 175 19 21 163 0 1 0 10 6
 0 S0 141 24 23 24 24 8 134 26 0 0 0 0 0 0 +823 824 136 823 1 2 2 2 5 FFF1 825 8
26 827 135 824 2 0 45 4 825 -.0371799427285061 .0297 -.0371799427285061 .0212 12
7 2 826 2 2 128 2 827 0 1 134 19 0 0 0 0 0 0 +828 829 136 828 1 2 2 2 1 FFF1 830
 831 832 135 829 1 0 45 4 830 0 -.004249999999999945 1 -.004249999999999945 127
 2 831 2 2 128 2 832 0 1 74 4 CI16 index_map_offset0 0 1 dCCZ20 16 11 0 0 673 66
9 499 833 834 835 836 837 14 661 2 0 0 0 0 0 0 0 0 0 81 2 833 928 838 1 0 834 0
 0 0 839 81 2 834 937 840 1 833 835 0 0 0 841 81 2 835 938 842 1 834 836 0 0 843
 0 81 1 836 958 844 1 835 837 0 0 845 81 2 837 959 846 1 836 14 0 0 0 0 81 2 14
 962 847 1 837 2 0 0 848 0 80 2 847 849 850 8004 0 0 0 0 3 5 0 0 0 FFTFFFFFFFFFF
FFF2 3 83 1 848 1 79 16 850 SDL/TYSA_DENSITY80 2 846 851 852 9000 0 0 0 0 3 5 0
 0 0 FFTFFFFFFFFFFFFF9 1 79 16 852 BODY_RECIPE_200180 1 844 853 854 9000 1 1 1 1
 1 1 1 1 0 FFTFFFFFFFFFFFFF1 82 1 845 3494082 79 10 854 BODY_MATCH80 2 842 855 8
56 9000 0 0 0 0 3 5 0 0 0 FFTFTTTFFTFFFFFF10 10 98 255 14 843 66 111 115 115 45
 69 120 116 114 117 100 101 52 54 79 23 856 SWIMPLICITBODYNAME_ID_U80 2 840 857
 858 9000 0 0 0 0 3 5 0 0 0 FFTFFFFFFFFFFFFF9 1 82 1 841 2800 79 30 858 LAST_BOD
Y_MODIFYING_FEATURE_ID80 2 838 859 860 9000 0 0 0 0 3 5 0 0 0 FFTFFFFFFFFFFTFF9
 1 82 1 839 54273 79 19 860 ENT_TIME_STAMP_200180 2 13 861 862 9000 0 0 0 0 3 5
 0 0 0 FFTFFFFFFFFFFFFF9 1 82 1 15 273 79 12 862 ATOM_ID_20011 0 
